<svg width="41" height="44" viewBox="0 0 41 44" fill="none" xmlns="http://www.w3.org/2000/svg">
<path d="M39.0515 44H38.3441C37.7412 43.8221 37.2977 43.3959 36.8663 42.923C33.5309 39.2586 30.1835 35.6065 26.8465 31.943C26.659 31.7369 26.5479 31.6902 26.3064 31.8822C22.4881 34.9161 18.2537 35.9861 13.6048 35.0684C7.35015 33.8338 2.15473 28.3094 0.845203 21.5134C0.677791 20.6442 0.605352 19.7618 0.462891 18.89C0.462891 18.0877 0.462891 17.2854 0.462891 16.4823C0.487842 16.3449 0.524061 16.2084 0.535329 16.0701C0.690669 14.1283 1.1253 12.2631 1.86417 10.4903C4.89047 3.22582 11.5137 -0.848072 18.7914 0.148826C22.9155 0.713324 26.3475 2.79695 29.0116 6.272C33.8923 12.64 34.1257 21.4976 29.6499 28.2152C29.4784 28.4723 29.476 28.6106 29.6893 28.8422C31.7353 31.0606 33.7684 33.2939 35.8055 35.522C37.2309 37.0825 38.666 38.6324 40.0802 40.2053C41.2062 41.4576 40.7522 43.3844 39.2262 43.9146C39.1658 43.9357 39.1103 43.9718 39.0523 44H39.0515ZM4.47436 17.6738C4.45987 24.9885 9.93056 30.9831 16.6408 31.0042C23.3373 31.0254 28.8152 25.0466 28.8273 17.7029C28.8394 10.3688 23.3759 4.38036 16.6673 4.37331C9.96759 4.36715 4.48965 10.3424 4.47516 17.6738H4.47436Z" fill="#295DA4"/>
</svg>
