<svg width="100" height="100" viewBox="0 0 100 100" fill="none" xmlns="http://www.w3.org/2000/svg">
<path d="M100 49.9999C100 77.6141 77.6142 99.9999 50 99.9999C22.3858 99.9999 0 77.6141 0 49.9999C0 22.3856 22.3858 -0.00012207 50 -0.00012207C77.6142 -0.00012207 100 22.3856 100 49.9999Z" fill="#223E58"/>
<path fill-rule="evenodd" clip-rule="evenodd" d="M49.9999 45.7691C52.2951 45.7691 54.4962 44.8777 56.1191 43.2908C57.742 41.704 58.6538 39.5517 58.6538 37.3076C58.6538 35.0635 57.742 32.9112 56.1191 31.3244C54.4962 29.7376 52.2951 28.8461 49.9999 28.8461C47.7048 28.8461 45.5036 29.7376 43.8807 31.3244C42.2578 32.9112 41.3461 35.0635 41.3461 37.3076C41.3461 39.5517 42.2578 41.704 43.8807 43.2908C45.5036 44.8777 47.7048 45.7691 49.9999 45.7691ZM29.8076 71.1538C29.8076 68.561 30.3299 65.9936 31.3447 63.5982C32.3594 61.2028 33.8468 59.0263 35.7218 57.1929C37.5968 55.3596 39.8228 53.9053 42.2727 52.9131C44.7225 51.9209 47.3482 51.4102 49.9999 51.4102C52.6516 51.4102 55.2773 51.9209 57.7272 52.9131C60.177 53.9053 62.403 55.3596 64.278 57.1929C66.1531 59.0263 67.6404 61.2028 68.6552 63.5982C69.6699 65.9936 70.1922 68.561 70.1922 71.1538H29.8076Z" fill="white"/>
</svg>
