<svg width="100" height="100" viewBox="0 0 100 100" fill="none" xmlns="http://www.w3.org/2000/svg">
<path d="M100 49.9999C100 77.6141 77.6142 99.9999 50 99.9999C22.3858 99.9999 0 77.6141 0 49.9999C0 22.3856 22.3858 -0.00012207 50 -0.00012207C77.6142 -0.00012207 100 22.3856 100 49.9999Z" fill="#223E58"/>
<path fill-rule="evenodd" clip-rule="evenodd" d="M58.798 27.6473C59.2476 27.1957 59.9782 27.194 60.4298 27.6436L70.0452 37.2163C70.2627 37.4328 70.385 37.7271 70.385 38.034C70.385 38.3409 70.2627 38.6352 70.0452 38.8517L60.4298 48.4243C59.9782 48.8739 59.2476 48.8723 58.798 48.4207C58.3484 47.9691 58.35 47.2385 58.8017 46.7889L66.4367 39.1878H40.385C39.7477 39.1878 39.2311 38.6712 39.2311 38.034C39.2311 37.3967 39.7477 36.8801 40.385 36.8801H66.4367L58.8017 29.279C58.35 28.8294 58.3484 28.0989 58.798 27.6473ZM41.2027 51.5789C41.6523 52.0305 41.6506 52.7611 41.199 53.2107L33.564 60.8118H59.6157C60.253 60.8118 60.7696 61.3284 60.7696 61.9656C60.7696 62.6029 60.253 63.1195 59.6157 63.1195H33.564L41.199 70.7206C41.6506 71.1702 41.6523 71.9007 41.2027 72.3523C40.7531 72.8039 40.0225 72.8056 39.5709 72.356L29.9555 62.7833C29.738 62.5668 29.6157 62.2725 29.6157 61.9656C29.6157 61.6587 29.738 61.3644 29.9555 61.1479L39.5709 51.5753C40.0225 51.1257 40.7531 51.1273 41.2027 51.5789Z" fill="white"/>
</svg>
