<svg width="100" height="100" viewBox="0 0 100 100" fill="none" xmlns="http://www.w3.org/2000/svg">
<path d="M100 49.9999C100 77.6141 77.6142 99.9999 50 99.9999C22.3858 99.9999 0 77.6141 0 49.9999C0 22.3856 22.3858 -0.00012207 50 -0.00012207C77.6142 -0.00012207 100 22.3856 100 49.9999Z" fill="#223E58"/>
<path fill-rule="evenodd" clip-rule="evenodd" d="M29.6699 37.1242C37.3253 37.0312 44.686 34.2263 50.3848 29.2306C56.0832 34.2273 63.444 37.0331 71.0997 37.1268C71.3906 38.8063 71.5387 40.5374 71.5387 42.297C71.5387 55.7976 62.7069 67.2827 50.3848 71.5383C38.0627 67.2801 29.231 55.795 29.231 42.2945C29.231 40.5323 29.3817 38.8063 29.6699 37.1242ZM60.187 46.7051C60.6686 46.2177 60.9352 45.5651 60.9291 44.8876C60.9231 44.2101 60.645 43.5621 60.1548 43.083C59.6645 42.6039 59.0013 42.3322 58.308 42.3263C57.6147 42.3204 56.9467 42.5809 56.448 43.0515L47.7406 51.5601L44.3216 48.2192C43.8229 47.7485 43.1549 47.4881 42.4616 47.494C41.7683 47.4999 41.1051 47.7716 40.6149 48.2507C40.1246 48.7297 39.8465 49.3778 39.8405 50.0553C39.8344 50.7327 40.101 51.3854 40.5826 51.8727L45.8711 57.0404C46.367 57.5248 47.0394 57.7969 47.7406 57.7969C48.4417 57.7969 49.1142 57.5248 49.61 57.0404L60.187 46.7051Z" fill="white"/>
</svg>
