<svg width="100" height="100" viewBox="0 0 100 100" fill="none" xmlns="http://www.w3.org/2000/svg">
<path d="M100 49.9999C100 77.6141 77.6142 99.9999 50 99.9999C22.3858 99.9999 0 77.6141 0 49.9999C0 22.3856 22.3858 -0.00012207 50 -0.00012207C77.6142 -0.00012207 100 22.3856 100 49.9999Z" fill="#223E58"/>
<path fill-rule="evenodd" clip-rule="evenodd" d="M51.5814 36.1537C51.5814 35.5165 52.098 34.9999 52.7352 34.9999H74.6156C75.2528 34.9999 75.7694 35.5165 75.7694 36.1537V58.3076C75.7694 58.9448 75.2528 59.4614 74.6156 59.4614C73.9783 59.4614 73.4617 58.9448 73.4617 58.3076V38.964L53.5562 59.1184C53.3394 59.3379 53.0437 59.4614 52.7352 59.4614C52.4267 59.4614 52.1311 59.3379 51.9143 59.1184L41.7951 48.8727L26.2057 64.6568C25.758 65.1102 25.0274 65.1148 24.574 64.667C24.1206 64.2192 24.1161 63.4886 24.5639 63.0352L40.9741 46.4198C41.1909 46.2003 41.4866 46.0768 41.7951 46.0768C42.1036 46.0768 42.3992 46.2003 42.616 46.4198L52.7352 56.6656L71.8542 37.3076H52.7352C52.098 37.3076 51.5814 36.791 51.5814 36.1537Z" fill="white"/>
</svg>
